<?xml version="1.0" ?><svg width="24px" height="24px" viewBox="0 0 24 24" style="enable-background:new 0 0 24 24;" version="1.1" xml:space="preserve" xmlns="http://www.w3.org/2000/svg" xmlns:xlink="http://www.w3.org/1999/xlink"><style type="text/css">
	.st0{opacity:0.2;fill:none;stroke:#000000;stroke-width:5.000000e-02;stroke-miterlimit:10;}
</style><g id="Layer_Grid"/><g id="Layer_2"><path d="M5,16c0.2,0.2,0.4,0.4,0.6,0.6C5.3,16.8,5,17.1,5,17.5c0,0.6,0.4,1,1,1c0.5,0,0.7,0.1,1,0.3c0.4,0.3,1,0.6,2,0.6   c1,0,1.6-0.3,2.1-0.6c0.2-0.1,0.4-0.3,0.9-0.3c0.4,0,0.5,0.1,0.8,0.2c0.1,0,0.1,0.1,0.2,0.1c0,0,0,0,0,0c0,0,0,0,0,0   c0.4,0.2,1,0.6,2,0.6c1,0,1.6-0.3,2-0.6c0.3-0.2,0.5-0.3,1-0.3c0.5,0,0.7,0.1,1,0.3c0.4,0.3,1,0.6,2,0.6c0.6,0,1-0.4,1-1   c0-0.4-0.2-0.7-0.5-0.8c0.3-0.5,0.5-1,0.5-1.6v-2c0-1.2-0.8-2.3-1.9-2.8l0.5-2.7c0.1-0.9-0.1-1.8-0.7-2.4C19.4,5.4,18.5,5,17.6,5   h-5.9C10.3,5,9,5.7,8.3,6.9c0,0,0,0.1,0,0.1l-1.9,4H3c-0.4,0-0.7,0.2-0.9,0.6c-0.2,0.4-0.1,0.8,0.1,1.1L5,16z M9,10h4   c0.6,0,1-0.4,1-1s-0.4-1-1-1h-3l0-0.1C10.4,7.4,11,7,11.7,7h5.9c0.3,0,0.6,0.1,0.8,0.4c0.2,0.2,0.3,0.5,0.2,0.8L18.2,11H8.6L9,10z    M7,13h12c0.6,0,1,0.4,1,1v2c0,0.4-0.2,0.7-0.5,0.9c-0.1,0-0.2-0.1-0.3-0.1c0,0-0.1,0-0.1,0c-0.1,0-0.2-0.1-0.4-0.1   c0,0-0.1,0-0.1,0c-0.2,0-0.4,0-0.6,0c-0.2,0-0.4,0-0.6,0.1c-0.1,0-0.1,0-0.2,0c-0.1,0-0.2,0.1-0.4,0.1c-0.1,0-0.1,0-0.1,0.1   c-0.1,0-0.2,0.1-0.3,0.1c0,0-0.1,0-0.1,0.1c0,0,0,0-0.1,0h-2.5c0,0,0,0,0,0c0,0-0.1,0-0.1-0.1c-0.1,0-0.2-0.1-0.3-0.1   c-0.1,0-0.1,0-0.2-0.1c-0.1,0-0.2-0.1-0.3-0.1c-0.1,0-0.1,0-0.2,0c-0.2,0-0.4-0.1-0.6-0.1c-0.2,0-0.4,0-0.6,0c0,0-0.1,0-0.1,0   c-0.1,0-0.3,0.1-0.4,0.1c0,0,0,0-0.1,0c-0.2,0.1-0.3,0.1-0.4,0.2c-1.5-0.3-2.8-1-3.8-2.2L5.1,13H7z"/></g></svg>